<?xml version="1.0" standalone="no"?><!DOCTYPE svg PUBLIC "-//W3C//DTD SVG 1.1//EN" "http://www.w3.org/Graphics/SVG/1.1/DTD/svg11.dtd"><svg t="1595221925187" class="icon" viewBox="0 0 1024 1024" version="1.1" xmlns="http://www.w3.org/2000/svg" p-id="1496" xmlns:xlink="http://www.w3.org/1999/xlink" width="200" height="200"><defs><style type="text/css"></style></defs><path d="M344.859207 952.411844c-21.136749-40.008846-38.499079-81.275832-40.008846-111.471188a17.739771 17.739771 0 0 1 16.984888-18.746283 17.488144 17.488144 0 0 1 18.872097 16.984887A108.074211 108.074211 0 0 0 343.475253 856.415776v-111.84863a649.074333 649.074333 0 0 1-75.488389 55.483966c1.761396 29.06303 11.07163 115.62305 61.145596 171.358643a362.470082 362.470082 0 0 0 58.126059 52.590245c-13.336282-21.136749-28.43396-45.922103-41.770242-71.336528z" p-id="1497" fill="#d81e06"></path><path d="M694.622077 133.488635L771.242792 25.162796a93.228161 93.228161 0 0 0-62.906991-25.162796 62.906991 62.906991 0 0 0-40.386288 23.149773 111.471188 111.471188 0 0 0-30.321169 81.024204c4.529303 57.874432 41.141172 134.117705 41.518614 134.746775A17.865585 17.865585 0 0 1 670.591607 262.951223a17.36233 17.36233 0 0 1-7.800467 1.887209 17.991399 17.991399 0 0 1-16.10419-10.190932C645.42881 251.627964 606.678104 171.736086 601.645545 106.941885A144.057009 144.057009 0 0 1 630.834388 11.574886c-44.53815 19.626981-67.813736 61.145595-93.605602 107.193513a503.255928 503.255928 0 0 1-48.060941 74.733505c-12.581398 15.47512-25.91768 30.32117-38.876521 45.041406A1220.395626 1220.395626 0 0 0 281.44896 475.576852C216.780574 591.325716 228.607088 724.311095 236.659183 776.523897c36.989311-20.759307 122.165377-78.382111 230.365401-210.360978 182.807716-223.823074 91.718393-328.374493 90.963509-329.506819a17.865585 17.865585 0 0 1 0.754884-25.162796 18.243027 18.243027 0 0 1 25.162796 0.754884c4.780931 5.032559 114.99398 126.568866-89.202113 377.441946-28.937216 35.353729-56.364664 65.549085-81.779088 91.340951a699.903182 699.903182 0 0 0 85.805135-41.3928v67.813736l-21.388377 14.091166h0.62907l-35.982799 23.778843h182.93353l-60.264897-23.778843h95.74444l-99.896301-39.50559v-69.952574a12.581398 12.581398 0 0 0-6.039072-10.820003c86.308392-67.687922 152.989802-172.742597 152.989803-242.946799V200.170045a74.356063 74.356063 0 0 1-19.501168-35.479542 31.076054 31.076054 0 0 1 6.668141-31.201868zM519.614828 625.798747c4.906745-3.14535 9.687677-6.416513 14.468608-9.813491v66.807225l-9.436048 6.290699v-53.219315a12.581398 12.581398 0 0 0-5.03256-10.065118z" p-id="1498" fill="#d81e06"></path><path d="M789.863262 60.768153L746.079996 122.417005a169.34562 169.34562 0 0 1 20.130237 3.396977l8.681165 2.013024 11.574886 25.162796a208.096326 208.096326 0 0 0 3.396978-92.221649zM723.307665 157.896547a51.457919 51.457919 0 0 0 5.66163 12.581399 18.620469 18.620469 0 0 1 10.44256 6.542327 36.234427 36.234427 0 0 0 15.978376-5.03256l-5.787443-12.581398a92.976533 92.976533 0 0 0-26.295123-1.509768z" p-id="1499" fill="#d81e06"></path></svg>